<svg width="16" height="17" viewBox="0 0 16 17" fill="none" xmlns="http://www.w3.org/2000/svg">
<g id="SVG">
<path id="Vector" d="M3.66283 3.45734L3.68683 3.47984L13.0202 12.8132C13.1114 12.905 13.1634 13.0287 13.1652 13.1581C13.1671 13.2875 13.1188 13.4127 13.0303 13.5071C12.9418 13.6016 12.8202 13.6581 12.6909 13.6648C12.5616 13.6714 12.4348 13.6276 12.3372 13.5427L12.3132 13.5202L11.6925 12.8997C10.6172 13.706 9.37767 14.1667 8 14.1667C6.01517 14.1667 4.33167 13.2122 3.005 11.6395C2.80667 11.4033 2.62011 11.1574 2.446 10.9028L2.36017 10.7757L2.27683 10.6482L2.216 10.5525L2.15667 10.4572L2.08 10.3302L2.04283 10.2668L2.00633 10.204L1.93583 10.079L1.90167 10.017L1.86833 9.95534L1.80433 9.83368L1.7735 9.77334L1.74367 9.71384L1.68667 9.59651C1.47533 9.15151 1.3465 8.76684 1.33417 8.52468C1.32567 8.35434 1.38083 8.11001 1.48733 7.82168L1.50917 7.76334L1.5515 7.65701L1.56267 7.62984L1.57417 7.60251L1.6225 7.49151L1.66133 7.40634L1.70217 7.31968L1.76 7.20201L1.8215 7.08234L1.88633 6.96101L1.92 6.89984L1.9545 6.83818L2.02583 6.71418C2.07433 6.63118 2.125 6.54751 2.1775 6.46384L2.2575 6.33818L2.34017 6.21251L2.36133 6.18118L2.3825 6.14984L2.469 6.02484C2.62993 5.79524 2.80128 5.57312 2.9825 5.35918C3.16103 5.14873 3.34929 4.94673 3.54667 4.75384L2.97983 4.18684C2.88865 4.09498 2.83664 3.97133 2.83475 3.8419C2.83286 3.71248 2.88124 3.58737 2.9697 3.49288C3.05817 3.39839 3.17983 3.34189 3.3091 3.33526C3.43837 3.32864 3.56517 3.3724 3.66283 3.45734ZM3.7445 6.00418L3.68167 6.07918L3.6195 6.15551L3.53783 6.25868L3.51783 6.28468L3.49783 6.31084L3.41867 6.41601L3.37983 6.46901L3.3035 6.57551L3.28467 6.60218L3.266 6.62884L3.19267 6.73601L3.1215 6.84301L3.10417 6.86968L3.08683 6.89634L3.01917 7.00268L3.0025 7.02918L2.98617 7.05551L2.92217 7.16051L2.90667 7.18634L2.89117 7.21234L2.83117 7.31501L2.774 7.41584L2.71967 7.51434L2.6685 7.61034L2.6205 7.70351L2.57567 7.79351L2.53433 7.87984L2.5245 7.90084L2.515 7.92168L2.47883 8.00201L2.4465 8.07818L2.439 8.09651L2.43167 8.11434L2.405 8.18334L2.39917 8.19968L2.39333 8.21584L2.37283 8.27668L2.364 8.30501L2.35633 8.33201L2.34433 8.38118C2.336 8.41951 2.33233 8.45118 2.3335 8.47551C2.33417 8.48834 2.3375 8.50684 2.34333 8.53051L2.34817 8.54918L2.3605 8.59201L2.37633 8.64151L2.39567 8.69734L2.41817 8.75901L2.444 8.82568L2.47283 8.89734L2.5045 8.97284L2.539 9.05218L2.59567 9.17668L2.65817 9.30634L2.68017 9.35034C2.97851 9.93945 3.344 10.4921 3.76933 10.9972C4.92017 12.3605 6.34333 13.1667 8 13.1667C9.09417 13.1667 10.0923 12.8145 10.9772 12.1843L9.49867 10.706C9.05689 11.007 8.53455 11.1675 8 11.1667C6.52717 11.1667 5.33333 9.97284 5.33333 8.50001C5.33333 7.94434 5.50333 7.42834 5.794 7.00134L4.253 5.46001C4.075 5.63321 3.90536 5.81481 3.74467 6.00418H3.7445ZM8 2.83334C9.98483 2.83334 11.6683 3.78784 12.995 5.36051C13.1933 5.59673 13.3799 5.84258 13.554 6.09718L13.6398 6.22434L13.7232 6.35184L13.784 6.44751L13.8433 6.54284L13.92 6.66984L13.9572 6.73318L13.9937 6.79601L14.0642 6.92101L14.0983 6.98301L14.1317 7.04468L14.1957 7.16634L14.2265 7.22668L14.2563 7.28618L14.3133 7.40351C14.5247 7.84851 14.6535 8.23318 14.6658 8.47534C14.6743 8.64568 14.6192 8.89001 14.5127 9.17834L14.4908 9.23668L14.4485 9.34301L14.4373 9.37018L14.4258 9.39751L14.3775 9.50851L14.3387 9.59368L14.2978 9.68034L14.24 9.79801L14.1785 9.91768L14.1137 10.039L14.08 10.1002L14.0455 10.1618L13.9742 10.2858C13.9257 10.3688 13.875 10.4525 13.8225 10.5362L13.7425 10.6618L13.6598 10.7875L13.6387 10.8188L13.6175 10.8502L13.531 10.9752C13.3923 11.173 13.2459 11.3654 13.0922 11.5518L12.3825 10.842L12.4622 10.7413L12.4822 10.7153L12.5022 10.6892L12.5813 10.584L12.6202 10.531L12.6965 10.4245L12.7153 10.3978L12.734 10.3712L12.8073 10.264L12.8785 10.157L12.8958 10.1303L12.9132 10.1037L12.9808 9.99734L12.9975 9.97084L13.0138 9.94451L13.0778 9.83951L13.0933 9.81368L13.1088 9.78768L13.1688 9.68501L13.226 9.58418L13.2803 9.48568L13.3315 9.38968L13.3795 9.29651L13.4243 9.20651L13.4657 9.12018L13.4755 9.09918L13.485 9.07834L13.5212 8.99801L13.5535 8.92184L13.561 8.90351L13.5683 8.88568L13.595 8.81668L13.6008 8.80034L13.6067 8.78418L13.6272 8.72334L13.636 8.69501L13.6437 8.66801L13.6557 8.61884C13.664 8.58051 13.6677 8.54884 13.6665 8.52451C13.6648 8.50593 13.6615 8.48752 13.6567 8.46951L13.6518 8.45084L13.6395 8.40801L13.6237 8.35851L13.6043 8.30268L13.5818 8.24101L13.556 8.17434L13.5272 8.10268L13.4955 8.02718L13.461 7.94784L13.4043 7.82334L13.3418 7.69368L13.3198 7.64968C13.0215 7.06057 12.656 6.50796 12.2307 6.00284C11.0798 4.63951 9.65667 3.83334 8 3.83334C7.23833 3.83334 6.52333 4.00401 5.8605 4.32001L5.1175 3.57684C5.99133 3.09784 6.956 2.83334 8 2.83334ZM6.33333 8.50001C6.33333 9.42051 7.0795 10.1667 8 10.1667C8.26841 10.1671 8.53291 10.1024 8.77083 9.97818L6.52167 7.72918C6.39748 7.96711 6.33285 8.23162 6.33333 8.50001ZM8 5.83334C9.47283 5.83334 10.6667 7.02718 10.6667 8.50001C10.6667 8.69418 10.6458 8.88334 10.6065 9.06584L9.61067 8.07001C9.53481 7.7869 9.38577 7.52874 9.17852 7.32149C8.97127 7.11424 8.71311 6.9652 8.43 6.88934L7.434 5.89351C7.61999 5.8534 7.80973 5.83323 8 5.83334Z" fill="#999999"/>
</g>
</svg>
